<?xml version="1.0" encoding="utf-8"?><!-- Uploaded to: SVG Repo, www.svgrepo.com, Generator: SVG Repo Mixer Tools -->
<svg  xmlns="http://www.w3.org/2000/svg" width="800px" height="800px" viewBox="0 0 24 24" fill="none" stroke="#000" stroke-width="2" stroke-linecap="round" stroke-linejoin="round"><rect x="3" y="5" width="18" height="14" fill="none" stroke="#000" /><rect x="14" y="18" width="4" height="2" fill="#000" /><circle cx="12" cy="10.5" r="1.5" fill="#000" /><path d="M9 14.25c0-0.998 1.999-1.5 3-1.5s3 0.502 3 1.5V15H9v-0.75z" fill="#000" /><circle cx="15.75" cy="11.25" r="1.125" fill="#000" /><path d="M15.75 13.313c-0.75 0-2.25 0.376-2.25 1.124V15h4.5v-0.563c0-0.748-1.5-1.124-2.25-1.124z" fill="#000" /><circle cx="8.25" cy="11.25" r="1.125" fill="#000" /><path d="M8.25 13.313c-0.75 0-2.25 0.376-2.25 1.124V15h4.5v-0.563c0-0.748-1.5-1.124-2.25-1.124z" fill="#000" /></svg>
