<svg viewBox="0 0 32 32" xmlns="http://www.w3.org/2000/svg"><path d="m18 15h-4v-4h-2v4h-4v2h4v4h2v-4h4z"/><path d="m21 26h-17a2.0023 2.0023 0 0 1 -2-2v-16a2.0023 2.0023 0 0 1 2-2h17a2.0023 2.0023 0 0 1 2 2v4.0566l5.4189-3.87a.9995.9995 0 0 1 1.5811.8134v14a.9995.9995 0 0 1 -1.5811.8135l-5.4189-3.8701v4.0566a2.0023 2.0023 0 0 1 -2 2zm-17-18v16.001l17-.001v-6a.9995.9995 0 0 1 1.5811-.8135l5.4189 3.8701v-10.1132l-5.4189 3.87a.9995.9995 0 0 1 -1.5811-.8134v-6z"/><path d="m0 0h32v32h-32z" fill="none"/></svg>