<svg fill="none" height="24" viewBox="0 0 24 24" width="24" xmlns="http://www.w3.org/2000/svg"><path d="m22.0957 12.5998c0-.5523-.4477-1-1-1s-1 .4477-1 1zm-10.6-8.6c.5523 0 1-.44771 1-1 0-.55228-.4477-1-1-1zm5.8 8.6c0-.5523-.4477-1-1-1s-1 .4477-1 1zm-5.8-3.8c.5523 0 1-.44771 1-1 0-.55228-.4477-1-1-1zm4.9497.07098c.3906-.39053.3906-1.02369 0-1.41421-.3905-.39053-1.0237-.39053-1.4142 0zm-5.6568 2.82842c-.3905.3905-.3905 1.0237 0 1.4142s1.0237.3905 1.4142 0zm11.3157-6.50528.7071.7071c.2679-.26783.3614-.664.2416-1.02333-.1198-.35934-.4323-.62016-.8073-.67372zm-3.8184 3.81837-.3162.94869c.3593.11982.7555.02625 1.0233-.24158zm-3.3941-3.39411-.7071-.70711c-.2678.26784-.3613.664-.2416 1.02334zm3.8184-3.81838.99-.14142c-.0536-.37496-.3144-.68748-.6738-.807259-.3593-.119778-.7555-.026255-1.0233.241579zm-2.9698 6.36397-.9487.31622c.0995.29861.3338.53292.6324.63246zm3.3941-3.39412-.99.14142c.0629.43998.4086.78568.8485.84853zm.9612 7.83015c0 4.7497-3.8504 8.6-8.6 8.6v2c5.8542 0 10.6-4.7458 10.6-10.6zm-8.6 8.6c-4.74966 0-8.60001-3.8503-8.60001-8.6h-1.999999c0 5.8542 4.745779 10.6 10.600009 10.6zm-8.60001-8.6c0-4.74964 3.85035-8.6 8.60001-8.6v-2c-5.85423 0-10.600009 4.74579-10.600009 10.6zm12.40001 0c0 2.0987-1.7013 3.8-3.8 3.8v2c3.2032 0 5.8-2.5967 5.8-5.8zm-3.8 3.8c-2.09869 0-3.80001-1.7013-3.80001-3.8h-2c0 3.2033 2.59675 5.8 5.80001 5.8zm-3.80001-3.8c0-2.0987 1.70132-3.8 3.80001-3.8v-2c-3.20326 0-5.80001 2.59675-5.80001 5.8zm7.33551-5.14323-4.2426 4.24263 1.4142 1.4142 4.2426-4.24262zm6.366-2.96976-3.8184 3.81838 1.4142 1.41421 3.8184-3.81838zm-5.7983 1.83848 3.8184-3.81838-1.4142-1.41421-3.8184 3.81837zm3.0033 1.73832-2.5456-.84853-.6325 1.89737 2.5456.84853zm-1.9132-.21607-.8485-2.54559-1.8974.63246.8486 2.54558zm1.0313-5.90631.4242 2.96984 1.9799-.28284-.4242-2.96985zm1.2727 3.81837 2.9699.42427.2828-1.9799-2.9698-.42427z" fill="#000"/></svg>