<svg viewBox="0 0 1920 1920" xmlns="http://www.w3.org/2000/svg"><path d="m1311.326 891.546-61.666-61.666 107.294-107.407-159.698-159.698-107.52 107.633-61.553-60.311 384.338-384.904 282.127 281.45zm-419.463 417.884-383.323 384.902-283.143-281.45 384.339-384.903 61.214 61.214-110.005 109.892 159.699 159.699 110.117-110.005 61.102 60.65zm962.484-961.92-283.03-283.03c-88.546-86.288-231.19-85.95-317.93 1.016l-384.903 384.902c-87.53 87.642-87.53 230.061 0 317.704l61.666 61.778-99.502 99.502-60.31-60.198c-42.127-43.144-98.372-67.087-158.57-67.426h-1.355c-60.197 0-116.894 23.605-159.812 66.41l-384.903 385.016c-87.642 87.642-87.642 230.061 0 317.704l283.142 283.142c43.822 43.821 101.309 65.732 158.909 65.732 57.487 0 115.087-21.91 158.908-65.732l384.903-384.903c43.257-43.257 66.862-100.518 66.523-161.168-.452-60.197-24.396-116.442-66.523-157.665l-61.214-61.102 99.614-99.614 61.666 61.78c43.821 43.707 101.309 65.618 158.909 65.618 57.487 0 115.087-21.91 158.795-65.732l385.016-384.903c86.852-86.852 87.304-229.497 0-318.833z" fill-rule="evenodd"/></svg>