<!-- not fill -->
<svg fill="none" height="24" viewBox="0 0 24 24" width="24" xmlns="http://www.w3.org/2000/svg"><g fill="#292d32"><path d="m6.67 14h-2.67c-1.1 0-2 .9-2 2v5c0 .55.45 1 1 1h3.67c.55 0 1-.45 1-1v-6c0-.55-.45-1-1-1z"/><path d="m13.3302 10h-2.67c-1.10004 0-2.00004.9-2.00004 2v9c0 .55.45 1 1 1h4.67004c.55 0 1-.45 1-1v-9c0-1.1-.89-2-2-2z"/><path d="m20.0001 17h-2.67c-.55 0-1 .45-1 1v3c0 .55.45 1 1 1h3.67c.55 0 1-.45 1-1v-2c0-1.1-.9-2-2-2z"/><path d="m15.0095 4.85047c.31-.31.43-.68.33-1s-.41-.55-.85-.62l-.96-.16c-.04 0-.13-.07-.15-.11l-.53-1.06c-.4-.81-1.31-.81-1.71 0l-.53 1.06c-.01.04-.1.11-.14.11l-.96005.16c-.44.07-.74.3-.85.62-.1.32.02.69.33 1l.74.75c.04.03.07.15.06.19l-.21.92c-.16.69.1 1 .27 1.12.17005.12.54005.28 1.15005-.08l.9-.53c.04-.03.17-.03.21 0l.89.53c.28.17.51.22.69.22.21 0 .36-.08.45-.14.17-.12.43-.43.27-1.12l-.21-.92c-.01-.05.02-.16.06-.19z"/></g></svg>