<svg viewBox="0 0 1024 1024" xmlns="http://www.w3.org/2000/svg"><path d="M902.75 858.688L775.11 644.895c60.047-64.158 96.925-150.65 96.925-245.755 0-198.832-161.186-360.018-360.018-360.018S152 200.308 152 399.14c0 94.24 36.21 180.025 95.476 244.197l-.222-.243L118.53 858.752c-2.123 3.513-3.38 7.756-3.38 12.293 0 5.048 1.556 9.733 4.216 13.6l-.053-.08c4.453 6.363 11.748 10.473 20.002 10.473 1.312 0 2.6-.104 3.855-.304l-.14.018 96-15.688 35.033 89.688c3.37 8.446 11.168 14.453 20.448 15.182l.084.005 1.812.063c8.832-.013 16.547-4.784 20.72-11.887l.06-.113 126.27-218.733c20.523 4.28 44.108 6.73 68.265 6.73 23.457 0 46.373-2.31 68.535-6.715l-2.226.37 126.034 218.28c4.252 7.212 11.973 11.98 20.81 12h.002l1.812-.064c9.37-.742 17.17-6.744 20.505-15.025l.058-.162 35-89.687 96 15.687c1.174.203 2.526.32 3.904.32 13.255 0 24-10.746 24-24 0-4.55-1.265-8.803-3.463-12.427l.06.107zM300.594 904.75l-23.936-61.247c-3.634-9.002-12.3-15.238-22.422-15.238-1.34 0-2.655.11-3.936.32l.14-.02-64.22 10.5 96.525-161.737c32.008 26.557 69.46 47.95 110.265 62.2l2.524.77zM200 400c0-172.313 139.687-312 312-312s312 139.687 312 312-139.687 312-312 312c-172.23-.205-311.795-139.77-312-311.98V400zm570.816 428.5c-1.184-.207-2.547-.326-3.937-.326-10.1 0-18.74 6.255-22.257 15.102l-.057.162-23.872 61.248-94.46-163.572c43.446-14.778 81.032-35.97 113.79-62.833l-.632.504L835.06 839zM512 168c-128.13 0-232 103.87-232 232s103.87 232 232 232 232-103.87 232-232c-.14-128.073-103.927-231.86-231.987-232H512zm0 416c-101.62 0-184-82.38-184-184s82.38-184 184-184 184 82.38 184 184c-.11 101.576-82.424 183.89-183.99 184H512zm85.312-227.156h-47.75l-14.75-45.343c-3.97-8.824-12.686-14.858-22.812-14.858s-18.842 6.034-22.75 14.702l-.062.157-14.75 45.344h-47.717c-13.25.013-23.985 10.757-23.985 24.01 0 7.94 3.855 14.98 9.795 19.35l.066.047 38.625 28.063-14.75 45.344c-.75 2.224-1.185 4.786-1.185 7.45 0 13.245 10.738 23.982 23.983 23.982 5.303 0 10.205-1.722 14.176-4.637l-.067.047 38.625-28.03 38.625 28.03c3.902 2.858 8.798 4.572 14.093 4.572 13.262 0 24.013-10.75 24.013-24.013 0-2.646-.428-5.192-1.218-7.572l.05.17-14.782-45.344 38.656-28.062c6.006-4.417 9.86-11.457 9.86-19.398 0-13.252-10.736-23.996-23.985-24.01zm-76.72 63.562c-2.55-1.01-5.503-1.594-8.593-1.594s-6.045.585-8.758 1.65l.163-.056c.02-.38.034-.82.034-1.267 0-5.75-2.03-11.026-5.41-15.15l.033.042c5.866-1.59 10.72-5.192 13.88-10.004l.057-.09c3.22 4.903 8.07 8.506 13.77 10.055l.168.04c-3.348 4.082-5.377 9.357-5.377 15.107 0 .446.013.89.037 1.328l-.003-.06z"/></svg>