<svg viewBox="0 0 32 32" xmlns="http://www.w3.org/2000/svg"><path d="m5 6c-1.644531 0-3 1.355469-3 3v14c0 1.644531 1.355469 3 3 3h22c1.644531 0 3-1.355469 3-3v-14c0-1.644531-1.355469-3-3-3zm0 2h22c.566406 0 1 .433594 1 1v14c0 .566406-.433594 1-1 1h-22c-.566406 0-1-.433594-1-1v-14c0-.566406.433594-1 1-1zm6 2c-2.199219 0-4 1.800781-4 4 0 1.113281.476563 2.117188 1.21875 2.84375-1.332031.902344-2.21875 2.4375-2.21875 4.15625h2c0-1.667969 1.332031-3 3-3s3 1.332031 3 3h2c0-1.71875-.886719-3.253906-2.21875-4.15625.742188-.726562 1.21875-1.730469 1.21875-2.84375 0-2.199219-1.800781-4-4-4zm7 1v2h8v-2zm-7 1c1.117188 0 2 .882813 2 2 0 1.117188-.882812 2-2 2-1.117187 0-2-.882812-2-2 0-1.117187.882813-2 2-2zm7 3v2h8v-2zm0 4v2h5v-2z"/></svg>